<svg width="99" height="47" viewBox="0 0 99 47" fill="none" xmlns="http://www.w3.org/2000/svg">
<path d="M32.7387 19.6008C31.4449 17.9086 30.7995 15.6546 30.8024 12.8391C30.8024 12.4059 30.8284 11.9727 30.8674 11.5396L21.3117 38.2269L7.92693 0.671448H0L17.0234 45.829H25.6001L34.6966 21.6323C33.97 21.0306 33.3132 20.3491 32.7387 19.6008V19.6008Z" fill="#168FE0"/>
<path d="M63.2768 26.1113C62.0266 24.4549 60.3747 23.1445 58.4774 22.3037C56.1037 21.3074 53.6634 20.478 51.1742 19.8217C49.3683 19.3542 47.5896 18.7874 45.8463 18.1237C44.637 17.6633 43.5409 16.9483 42.6322 16.0272C42.2071 15.5696 41.8769 15.0324 41.6606 14.4466C41.4442 13.8607 41.346 13.2378 41.3717 12.6138C41.3711 12.352 41.3841 12.0903 41.4106 11.8298L37.7201 21.6323C38.5501 22.3396 39.478 22.9232 40.475 23.365C42.8047 24.3275 45.2023 25.1166 47.6482 25.7258C49.5091 26.1864 51.3415 26.7548 53.1364 27.4281C54.3931 27.9055 55.5247 28.6624 56.4458 29.6416C57.3579 30.657 57.834 31.9904 57.7713 33.3538C57.7931 34.2599 57.6096 35.1593 57.2345 35.9845C56.8594 36.8096 56.3025 37.5392 55.6055 38.1186C54.1616 39.3517 52.169 39.9654 49.6278 39.9596C47.1587 39.9596 45.2427 39.3286 43.8797 38.0666C42.5227 36.8184 41.7002 35.0943 41.5839 33.2542H33.657C33.6081 35.6887 34.3364 38.0754 35.7362 40.0679C37.1863 42.0724 39.162 43.6374 41.4453 44.5901C44.0312 45.6894 46.8182 46.2367 49.6278 46.1972C52.5195 46.273 55.3861 45.6426 57.9792 44.3605C60.1987 43.2612 62.0688 41.5665 63.3808 39.4658C64.5951 37.5159 65.2402 35.2654 65.2434 32.9683C65.2521 30.1123 64.5965 27.8266 63.2768 26.1113Z" fill="#168FE0"/>
<path d="M42.5499 8.77165C42.8026 8.44893 43.0935 8.15804 43.4162 7.90532C44.759 6.82241 46.4917 6.28384 48.6142 6.28962C50.9533 6.28962 52.8303 6.87728 54.2453 8.0526C54.9081 8.55485 55.4581 9.19069 55.8595 9.91897C56.261 10.6472 56.505 11.4517 56.5758 12.2803H64.7626C64.4738 8.46844 62.9303 5.4666 60.1321 3.27478C57.3338 1.08297 53.7501 -0.00861215 49.3809 5.11613e-05C47.3537 5.11613e-05 47.1501 0.0996793 45.4434 0.550171L42.5499 8.77165Z" fill="#168FE0"/>
<path d="M39.5177 8.77164L42.5499 0.671448H40.7522C39.8887 0.892271 39.0442 1.18198 38.2269 1.53778C36.0993 2.43649 34.2626 3.90741 32.9206 5.78713L30.8587 11.5482C30.8198 11.9814 30.7938 12.4146 30.7938 12.8477C30.7938 15.6633 31.4392 17.9172 32.73 19.6094C33.3019 20.3573 33.9557 21.0387 34.6793 21.641L38.3785 11.8081C38.4522 10.7062 38.8484 9.65019 39.5177 8.77164V8.77164Z" fill="#168FE0"/>
<path d="M75.2062 44.7287C72.9203 43.7786 70.9415 42.215 69.4884 40.2108C68.088 38.2154 67.3597 35.8257 67.4092 33.3884H75.3362C75.4562 35.2282 76.2818 36.9506 77.6406 38.1966C79.0036 39.4528 80.9211 40.0808 83.393 40.0808C85.9487 40.0808 87.9413 39.4643 89.3707 38.2312C90.0668 37.651 90.623 36.9212 90.998 36.0963C91.373 35.2713 91.5571 34.3724 91.5366 33.4664C91.5946 32.1047 91.1155 30.7747 90.2024 29.7628C89.2787 28.7859 88.1458 28.0306 86.8887 27.5537C85.0932 26.8857 83.2608 26.3217 81.4005 25.8644C78.9517 25.2516 76.5513 24.4596 74.2186 23.4949C72.3542 22.6738 70.7326 21.3864 69.5101 19.7567C68.2106 18.0674 67.5608 15.8149 67.5608 12.9993C67.5088 10.5808 68.1882 8.20293 69.5101 6.17698C70.8484 4.18669 72.7331 2.62536 74.9376 1.68072C77.5079 0.594689 80.2785 0.0633125 83.0682 0.121321C87.4431 0.121321 91.0269 1.21579 93.8193 3.40472C96.6118 5.59365 98.1611 8.59259 98.4672 12.4016H90.2804C90.2085 11.5729 89.9631 10.7687 89.5601 10.0411C89.1571 9.31345 88.6056 8.67876 87.9413 8.1782C86.4974 7.02309 84.6131 6.44554 82.2885 6.44554C80.166 6.44554 78.4333 6.98699 77.0905 8.06991C75.7477 9.15282 75.0763 10.7122 75.0763 12.7481C75.0295 14.0084 75.4844 15.2359 76.3411 16.1614C77.2483 17.0896 78.3465 17.8094 79.5595 18.271C81.3075 18.9218 83.0906 19.4743 84.9005 19.9257C87.3905 20.5784 89.8322 21.4034 92.208 22.3947C94.1089 23.2314 95.7641 24.5407 97.0161 26.1979C98.3387 27.9074 99 30.1917 99 33.0506C98.9992 35.3468 98.3571 37.5972 97.1461 39.5481C95.8381 41.6523 93.971 43.3515 91.7531 44.4558C89.1629 45.7429 86.2975 46.3778 83.406 46.3054C80.5928 46.356 77.8 45.8189 75.2062 44.7287V44.7287Z" fill="#168FE0"/>
</svg>
